<?xml version="1.0" standalone="no"?>
<!DOCTYPE svg PUBLIC "-//W3C//DTD SVG 20010904//EN"
 "http://www.w3.org/TR/2001/REC-SVG-20010904/DTD/svg10.dtd">
<svg version="1.0" xmlns="http://www.w3.org/2000/svg"
 width="512.000000pt" height="512.000000pt" viewBox="0 0 512.000000 512.000000"
 preserveAspectRatio="xMidYMid meet">
<metadata>
Created by potrace 1.14, written by Peter Selinger 2001-2017
</metadata>
<g transform="translate(0.000000,512.000000) scale(0.100000,-0.100000)"
fill="#000000" stroke="none">
<path d="M2346 4855 c-15 -14 -26 -35 -27 -52 0 -15 -2 -55 -4 -88 -7 -111
-15 -239 -21 -345 l-6 -105 -146 -245 c-81 -135 -151 -253 -157 -263 -5 -10
-217 -363 -470 -784 -253 -421 -469 -781 -480 -799 -11 -19 -168 -282 -350
-584 l-330 -550 -63 0 c-92 0 -132 -25 -132 -83 0 -12 69 -118 154 -237 124
-174 150 -216 135 -218 -21 -4 -128 25 -144 39 -6 4 -29 11 -51 14 -33 6 -43
3 -67 -19 -36 -33 -36 -78 -1 -111 15 -14 70 -39 123 -56 169 -55 373 -48 539
18 l63 25 47 -20 c84 -36 175 -55 282 -58 118 -4 207 11 316 50 l72 26 43 -18
c98 -42 179 -57 314 -56 134 1 205 13 300 54 l45 19 88 -29 c203 -68 408 -64
585 12 l47 20 48 -19 c39 -17 62 -24 107 -34 2 -1 30 -8 62 -15 117 -27 330
-4 458 50 37 16 41 16 90 -3 189 -75 421 -77 602 -5 l62 25 42 -22 c64 -32
212 -66 299 -68 68 -2 81 1 104 21 32 28 38 64 18 101 -20 33 -27 35 -125 39
-43 1 -80 5 -82 9 -2 3 29 107 70 230 41 123 75 234 75 247 0 13 -12 34 -26
47 -25 23 -35 25 -120 25 l-92 0 -4 141 c-4 186 4 179 -203 179 l-152 0 -47
70 c-51 78 -51 77 -33 77 41 0 143 15 157 23 25 14 44 64 34 93 -5 13 -189
324 -409 690 -220 367 -409 682 -420 701 -11 19 -173 288 -360 599 -187 311
-345 574 -350 584 -68 122 -392 652 -407 666 -28 24 -70 21 -102 -8z m230
-503 c43 -73 88 -148 99 -166 11 -19 334 -558 719 -1198 384 -639 703 -1172
710 -1182 6 -11 26 -44 44 -72 17 -29 32 -58 32 -64 0 -5 -15 -10 -32 -11 -18
0 -40 -2 -48 -3 -18 -4 -103 -14 -180 -22 -30 -3 -71 -7 -90 -10 -19 -3 -55
-7 -80 -10 -25 -2 -58 -6 -75 -9 -16 -2 -61 -7 -100 -10 -38 -4 -77 -8 -85
-10 -8 -2 -46 -7 -85 -10 -38 -4 -81 -8 -95 -11 -14 -2 -50 -6 -80 -9 -30 -3
-66 -8 -80 -10 -14 -2 -56 -7 -95 -10 -38 -4 -77 -8 -85 -10 -8 -2 -46 -7 -85
-10 -38 -4 -82 -8 -96 -11 -32 -5 -82 -11 -164 -19 -33 -4 -71 -8 -85 -10 -14
-2 -52 -6 -85 -10 -33 -4 -86 -10 -118 -14 -32 -4 -60 -5 -62 -1 -3 4 -3 34 0
66 2 33 7 104 10 159 3 55 7 121 9 147 2 25 7 104 11 175 5 70 9 144 10 163 1
19 6 91 10 160 4 69 9 148 10 175 2 28 6 95 10 150 3 55 8 125 10 155 2 30 7
98 10 150 3 52 8 124 10 160 2 36 7 110 10 165 3 55 8 127 10 160 2 33 6 110
10 170 4 61 8 133 11 160 2 28 6 97 9 155 3 58 7 128 10 155 2 28 7 104 11
170 4 66 8 134 10 150 1 17 3 54 3 84 l1 54 19 -24 c10 -13 54 -84 97 -157z
m-321 -574 c-3 -68 -8 -148 -10 -178 -2 -30 -6 -100 -10 -155 -3 -55 -8 -127
-10 -160 -8 -113 -16 -240 -20 -320 -2 -44 -6 -114 -9 -155 -3 -41 -8 -111
-11 -155 -2 -44 -7 -120 -10 -170 -3 -49 -8 -117 -10 -150 -2 -33 -7 -109 -10
-170 -3 -60 -8 -137 -10 -170 -5 -65 -13 -195 -20 -313 -2 -41 -6 -77 -10 -80
-7 -7 -9 -7 -100 -16 -38 -4 -83 -9 -100 -11 -16 -2 -57 -7 -90 -10 -33 -3
-73 -8 -90 -10 -16 -2 -61 -7 -100 -11 -38 -3 -81 -7 -95 -9 -14 -1 -54 -6
-90 -9 -36 -4 -81 -9 -100 -11 -19 -2 -64 -7 -100 -11 -36 -3 -76 -8 -90 -9
-14 -2 -57 -6 -97 -10 -40 -4 -85 -8 -100 -10 -95 -12 -163 -16 -163 -10 0 3
219 372 488 818 268 447 488 818 490 825 2 6 7 12 12 12 5 0 10 6 12 14 3 14
451 765 456 766 2 0 1 -55 -3 -122z m1795 -2358 l41 -60 -261 0 c-242 0 -261
-1 -279 -19 -10 -10 -67 -82 -125 -160 -104 -138 -107 -141 -145 -141 l-38 0
-107 161 c-59 89 -105 163 -103 166 5 5 11 6 117 17 89 10 141 16 265 31 84
10 108 13 172 20 35 4 75 8 90 10 16 2 55 6 88 10 33 4 85 10 115 14 128 17
125 17 170 -49z m-1944 -47 c-4 -49 -8 -104 -20 -308 -1 -20 -9 -20 -770 -23
-711 -2 -768 -1 -762 14 4 10 35 65 71 123 63 105 65 107 103 109 22 2 49 4
60 7 11 2 53 6 94 10 40 3 84 8 98 10 14 2 54 6 90 10 36 3 81 8 100 10 46 5
112 12 240 25 58 6 119 12 135 15 17 2 62 7 100 10 39 4 81 8 95 10 14 2 57 7
95 10 39 3 95 9 125 13 30 4 77 9 103 10 l49 3 -6 -58z m842 -178 l102 -155
-402 2 -402 3 2 50 c5 88 13 179 16 183 5 4 34 9 110 17 38 4 79 9 90 10 12 2
68 9 126 15 173 18 205 22 209 26 2 2 14 4 25 4 16 0 46 -39 124 -155z m1532
-75 l0 -80 -480 0 -481 0 61 80 61 80 419 0 420 0 0 -80z m166 -367 c-24 -71
-49 -147 -55 -171 l-12 -42 -39 20 c-51 26 -70 25 -138 -6 -183 -84 -400 -82
-569 5 -56 28 -79 27 -154 -8 -172 -80 -374 -78 -555 5 -67 31 -78 30 -159 -6
-177 -79 -397 -75 -567 11 -44 23 -81 24 -111 5 -12 -8 -58 -27 -102 -42 -151
-50 -329 -40 -474 27 -74 34 -99 36 -149 10 -80 -41 -166 -63 -262 -66 -117
-5 -180 6 -291 51 -48 19 -94 34 -103 34 -10 0 -41 -11 -71 -24 -55 -26 -164
-61 -169 -54 -9 10 -254 355 -260 366 -6 9 425 12 2138 12 l2145 0 -43 -127z"/>
<path d="M2905 3334 c-14 -15 -25 -38 -25 -51 0 -13 77 -155 171 -316 95 -161
189 -322 211 -358 42 -72 75 -95 122 -83 27 6 56 48 56 79 0 9 -61 120 -137
248 -75 128 -146 249 -157 269 -91 161 -128 216 -151 226 -40 18 -64 14 -90
-14z"/>
<path d="M3474 2377 c-18 -16 -27 -34 -27 -53 0 -34 106 -219 134 -234 54 -29
120 13 114 73 -3 37 -85 181 -122 215 -31 28 -65 28 -99 -1z"/>
<path d="M3949 4793 c-32 -8 -46 -54 -45 -150 1 -73 5 -95 19 -111 37 -40 104
-35 128 9 16 32 18 177 2 211 -20 41 -54 55 -104 41z"/>
<path d="M3445 4574 c-43 -46 -34 -77 44 -157 60 -62 74 -71 105 -71 42 0 73
25 80 65 5 31 -10 55 -74 120 -75 76 -114 87 -155 43z"/>
<path d="M4435 4591 c-31 -13 -145 -137 -145 -158 1 -57 48 -101 97 -88 30 7
129 98 149 137 36 69 -29 138 -101 109z"/>
<path d="M3872 4370 c-96 -34 -168 -99 -211 -190 -35 -73 -38 -212 -6 -276
l21 -41 -23 -36 c-27 -43 -53 -135 -53 -187 0 -63 28 -153 56 -177 l25 -23
597 0 c328 0 606 3 618 6 37 10 58 62 60 144 1 41 -3 86 -9 100 -29 73 -41 93
-80 132 -44 45 -120 88 -154 88 -12 0 -28 15 -42 41 -52 91 -140 163 -236 192
-60 17 -58 17 -94 17 -22 0 -31 6 -37 23 -6 22 -65 101 -94 125 -8 7 -44 27
-79 44 -80 39 -178 46 -259 18z m190 -159 c27 -10 88 -67 88 -82 0 -4 -19 -18
-42 -32 -24 -14 -59 -41 -77 -61 -27 -28 -43 -36 -71 -36 -20 0 -62 -7 -95
-15 -66 -18 -75 -13 -75 41 0 59 13 94 49 135 57 63 140 82 223 50z m332 -223
c51 -15 141 -102 150 -145 12 -51 45 -79 104 -86 28 -3 60 -11 71 -17 29 -15
68 -70 76 -107 l7 -33 -521 0 -520 0 3 53 c4 65 33 115 88 153 37 26 49 29
127 30 95 0 117 7 126 34 9 28 99 105 137 117 46 15 103 15 152 1z"/>
<path d="M3274 4108 c-81 -22 -67 -139 18 -152 53 -8 161 -1 184 12 33 18 45
63 27 100 -8 17 -25 34 -37 38 -28 9 -160 11 -192 2z"/>
</g>
</svg>
